<svg width="126" height="32" viewBox="0 0 126 32" fill="none" xmlns="http://www.w3.org/2000/svg">
<path d="M2.3829 31.565C1.13962 31.565 0.19761 30.4427 0.413196 29.2182L4.97641 3.30086C5.14502 2.34318 5.97804 1.64555 6.95046 1.64767L14.7216 1.66456C18.2337 1.67826 20.8712 2.38382 22.6342 3.78123C24.3972 5.17864 25.1954 7.1446 25.0288 9.67912C24.8344 12.7068 23.0645 14.9194 19.719 16.3168C20.9267 16.7278 21.8638 17.5019 22.5301 18.639C23.1964 19.7624 23.481 21.0913 23.3838 22.6257C23.1895 25.4479 22.065 27.6468 20.0105 29.2223C17.9699 30.7841 15.1797 31.565 11.6398 31.565H2.3829ZM8.41234 18.5362L6.97558 26.6124L11.7856 26.633C13.2848 26.633 14.5411 26.2699 15.5545 25.5438C16.5679 24.804 17.1717 23.8108 17.3661 22.5641C17.5604 21.3311 17.3869 20.372 16.8455 19.687C16.318 18.9883 15.4226 18.6116 14.1594 18.5568L8.41234 18.5362ZM9.16195 14.1796L13.3057 14.2207C14.8465 14.1933 16.1028 13.8371 17.0745 13.1521C18.0602 12.4671 18.6501 11.5149 18.8445 10.2956C19.1915 7.88441 17.9075 6.67195 14.9923 6.65825L10.4946 6.6377L9.16195 14.1796Z" fill="white"/>
<path d="M39.2715 31.565C39.091 31.0033 39.0147 30.332 39.0424 29.5511C37.3488 31.2225 35.4332 32.0308 33.2954 31.976C31.3242 31.9486 29.6861 31.3184 28.3812 30.0854C27.0902 28.8387 26.4864 27.3043 26.5697 25.4822C26.6668 23.0573 27.6941 21.2009 29.6514 19.9131C31.6226 18.6116 34.2602 17.9608 37.564 17.9608L40.3126 18.0019L40.6041 16.6662C40.6874 16.2141 40.7082 15.7825 40.6666 15.3715C40.5972 14.7276 40.3473 14.2276 39.917 13.8713C39.5005 13.5014 38.9452 13.3096 38.2512 13.2959C37.335 13.2685 36.5576 13.4946 35.919 13.9741C35.2805 14.4399 34.871 15.1181 34.6905 16.0086L30.8986 16.0218C29.7554 16.0258 28.8041 15.0462 29.2142 13.9791C29.679 12.7693 30.5258 11.7333 31.7545 10.871C33.6424 9.54212 35.9676 8.89136 38.7301 8.91876C41.2843 8.97356 43.2833 9.72707 44.727 11.1793C46.1707 12.6178 46.7745 14.4742 46.5386 16.7484L44.8103 27.3933L44.7062 28.7086C44.6784 29.6813 44.7964 30.5033 45.0602 31.1746C45.0485 31.3935 44.8676 31.565 44.6483 31.565H39.2715ZM34.753 27.4755C36.4465 27.5303 37.9249 26.8042 39.1882 25.2972L39.917 21.4544L37.8763 21.4338C35.7108 21.4886 34.1491 22.1394 33.1913 23.3861C32.8442 23.8382 32.629 24.393 32.5458 25.0506C32.4347 25.7904 32.5874 26.3795 33.0039 26.8179C33.4342 27.2426 34.0172 27.4618 34.753 27.4755Z" fill="white"/>
<path d="M54.8468 31.565H51.3162C50.0729 31.565 49.1309 30.4426 49.3465 29.2181L54.4928 0H58.0041C59.2469 0 60.1888 1.12155 59.974 2.34566L54.8468 31.565Z" fill="white"/>
<path d="M69.7141 27.2084C70.7969 27.2358 71.6992 26.9481 72.4211 26.3453C73.1429 25.7288 73.6149 24.9136 73.837 23.8998L77.2188 23.8872C78.3751 23.8829 79.321 24.8749 78.9532 25.9712C78.701 26.7226 78.3353 27.4296 77.8558 28.0921C76.9674 29.3388 75.7735 30.3115 74.2743 31.0102C72.7889 31.7089 71.2203 32.0377 69.5684 31.9966C66.8337 31.9555 64.6681 31.0239 63.0717 29.2018C61.4753 27.3796 60.7049 24.9547 60.7604 21.927L60.8229 20.7967L60.8437 20.5707C61.2185 16.9539 62.454 14.0905 64.5501 11.9807C66.6463 9.85722 69.2352 8.83656 72.317 8.91876C74.8573 8.97356 76.8702 9.79557 78.3555 11.3848C79.4532 12.5383 80.1416 13.9636 80.4207 15.6606C80.5986 16.7423 79.6803 17.632 78.5841 17.632H75.0864C75.0864 16.4401 74.8226 15.5017 74.2951 14.8167C73.7676 14.1317 72.9763 13.7617 71.9213 13.7069C69.1172 13.6247 67.4167 15.6455 66.8198 19.7692C66.6116 21.2626 66.5352 22.523 66.5907 23.5505C66.7296 25.948 67.7707 27.1673 69.7141 27.2084Z" fill="white"/>
<path d="M94.6596 31.565C94.4792 31.0033 94.4028 30.332 94.4306 29.5511C92.737 31.2225 90.8213 32.0308 88.6835 31.976C86.7123 31.9486 85.0743 31.3184 83.7694 30.0854C82.4784 28.8387 81.8745 27.3043 81.9578 25.4822C82.055 23.0573 83.0823 21.2009 85.0396 19.9131C87.0108 18.6116 89.6483 17.9608 92.9522 17.9608L95.7008 18.0019L95.9923 16.6662C96.0756 16.2141 96.0964 15.7825 96.0547 15.3715C95.9853 14.7276 95.7355 14.2276 95.3051 13.8713C94.8887 13.5014 94.3334 13.3096 93.6393 13.2959C92.7231 13.2685 91.9458 13.4946 91.3072 13.9741C90.6686 14.4399 90.2591 15.1181 90.0787 16.0086L86.2868 16.0218C85.1436 16.0258 84.1922 15.0462 84.6023 13.9791C85.0672 12.7693 85.914 11.7333 87.1427 10.871C89.0306 9.54212 91.3558 8.89136 94.1182 8.91876C96.6725 8.97356 98.6715 9.72707 100.115 11.1793C101.559 12.6178 102.163 14.4742 101.927 16.7484L100.198 27.3933L100.094 28.7086C100.067 29.6813 100.185 30.5033 100.448 31.1746C100.437 31.3935 100.256 31.565 100.036 31.565H94.6596ZM90.1411 27.4755C91.8347 27.5303 93.3131 26.8042 94.5763 25.2972L95.3051 21.4544L93.2645 21.4338C91.099 21.4886 89.5373 22.1394 88.5794 23.3861C88.2324 23.8382 88.0172 24.393 87.9339 25.0506C87.8229 25.7904 87.9756 26.3795 88.392 26.8179C88.8224 27.2426 89.4054 27.4618 90.1411 27.4755ZM103.343 0.226052C103.245 1.84266 102.753 3.17842 101.864 4.23333C100.99 5.27454 99.8792 5.79514 98.5326 5.79514C98.144 5.79514 97.7691 5.74034 97.4082 5.63074C97.0612 5.50744 96.5337 5.25399 95.8257 4.87038C95.1177 4.47308 94.5833 4.21278 94.2224 4.08948C93.8753 3.96618 93.5005 3.91138 93.0979 3.92508C92.0429 3.96618 91.3419 4.63748 90.9949 5.93899L87.5383 5.73349C87.6355 4.14428 88.1422 2.81537 89.0583 1.74676C89.9884 0.678155 91.1198 0.157551 92.4524 0.184951C92.8134 0.184951 93.1535 0.239752 93.4727 0.349353C93.8059 0.445253 94.3542 0.698705 95.1177 1.10971C95.8951 1.52071 96.4504 1.78101 96.7835 1.89061C97.1306 2.00021 97.4985 2.04816 97.8871 2.03446C98.956 1.99336 99.6571 1.32206 99.9902 0.0205501L103.343 0.226052Z" fill="white"/>
<path d="M116.919 8.91876C118.904 8.94616 120.612 9.45307 122.041 10.4395C123.485 11.4122 124.54 12.7616 125.206 14.4879C125.887 16.2004 126.13 18.1047 125.935 20.2008C125.616 23.7354 124.367 26.5987 122.187 28.7908C120.022 30.9691 117.342 32.0308 114.15 31.976C112.192 31.9486 110.499 31.4554 109.069 30.4964C107.639 29.5237 106.584 28.1811 105.904 26.4686C105.224 24.7561 104.981 22.8655 105.175 20.7967C105.536 17.1251 106.799 14.207 108.965 12.0424C111.13 9.87777 113.782 8.83656 116.919 8.91876ZM110.985 22.9134C111.012 24.2286 111.325 25.2698 111.922 26.037C112.519 26.7905 113.358 27.181 114.441 27.2084C116.246 27.2632 117.662 26.448 118.689 24.7629C119.716 23.0641 120.195 20.8378 120.126 18.0841C120.07 16.7689 119.744 15.7209 119.147 14.94C118.564 14.1454 117.724 13.7343 116.628 13.7069C114.878 13.6521 113.476 14.4673 112.421 16.1524C111.38 17.8238 110.901 20.0775 110.985 22.9134Z" fill="white"/>
</svg>
